<?xml version="1.0" standalone="no"?>
<!DOCTYPE svg PUBLIC "-//W3C//DTD SVG 20010904//EN"
 "http://www.w3.org/TR/2001/REC-SVG-20010904/DTD/svg10.dtd">
<svg version="1.0" xmlns="http://www.w3.org/2000/svg"
 width="1920.000000pt" height="1830.000000pt" viewBox="0 0 1920.000000 1830.000000"
 preserveAspectRatio="xMidYMid meet">

<g transform="translate(0.000000,1830.000000) scale(0.100000,-0.100000)"
fill="#000000" stroke="none">
<path d="M9665 14270 c-315 -21 -514 -46 -850 -105 -122 -22 -446 -105 -575
-148 -115 -38 -364 -134 -448 -173 -29 -13 -55 -24 -59 -24 -9 0 -259 -128
-347 -177 -109 -62 -322 -202 -421 -276 -200 -151 -472 -404 -619 -577 -85
-100 -252 -317 -289 -377 l-26 -42 82 -47 c45 -26 136 -80 202 -119 66 -40
158 -94 205 -120 47 -27 150 -87 230 -135 161 -96 483 -285 545 -320 22 -12
87 -50 145 -85 58 -35 152 -91 210 -125 l105 -61 15 23 c42 63 182 229 268
316 277 280 554 453 927 580 152 51 203 64 400 98 148 25 182 27 445 28 284 1
334 -3 520 -41 353 -71 671 -255 831 -479 104 -146 154 -265 184 -439 38 -229
5 -436 -108 -660 -125 -249 -336 -482 -883 -970 -118 -105 -518 -505 -575
-574 -24 -30 -60 -73 -79 -96 -19 -22 -43 -52 -53 -66 -9 -13 -38 -53 -64 -89
-266 -368 -423 -809 -440 -1237 l-6 -153 1074 0 1075 0 12 120 c14 136 23 178
65 305 75 227 220 443 465 696 153 158 237 236 541 504 212 187 261 233 432
405 383 387 586 695 742 1125 144 396 180 946 91 1398 -86 439 -297 833 -618
1152 -262 261 -516 429 -911 605 -158 70 -287 114 -560 191 -22 6 -60 17 -85
24 -25 7 -58 16 -75 19 -295 58 -466 84 -740 112 -172 18 -792 27 -980 14z"/>
<path d="M10006 6569 c-362 -47 -701 -231 -891 -484 -183 -244 -257 -462 -258
-765 -2 -362 126 -670 384 -922 104 -101 204 -171 344 -238 117 -57 185 -81
321 -112 87 -20 125 -23 319 -22 204 0 228 2 330 27 269 66 481 182 660 362
104 103 168 191 234 317 210 405 184 899 -68 1283 -55 85 -211 242 -304 309
-74 52 -243 142 -317 168 -70 25 -247 66 -333 78 -92 12 -323 11 -421 -1z"/>
</g>
</svg>
